<svg width="260" height="140" viewBox="0 0 260 140" fill="none" xmlns="http://www.w3.org/2000/svg">
<path d="M0 0H260V140H0V0Z" fill="#159EE4"/>
<path fill-rule="evenodd" clip-rule="evenodd" d="M113.491 53.5093C114.146 52.8538 114.15 51.7861 113.452 51.176C110.166 48.3041 106.177 46.3356 101.877 45.4804C97.0277 44.5157 92.0011 45.0108 87.4329 46.903C82.8648 48.7952 78.9603 51.9995 76.2133 56.1108C73.4662 60.222 72 65.0555 72 70C72 74.9445 73.4662 79.778 76.2133 83.8893C78.9603 88.0005 82.8648 91.2048 87.4329 93.097C92.0011 94.9892 97.0277 95.4843 101.877 94.5196C106.177 93.6644 110.166 91.696 113.452 88.824C114.15 88.2139 114.146 87.1462 113.491 86.4907C112.835 85.8351 111.776 85.8407 111.072 86.4435C108.26 88.8497 104.87 90.5012 101.222 91.2268C97.024 92.0619 92.6724 91.6333 88.7177 89.9952C84.7631 88.3571 81.3829 85.5831 79.0048 82.024C76.6267 78.4649 75.3574 74.2805 75.3574 70C75.3574 65.7195 76.6267 61.5351 79.0048 57.976C81.3829 54.4169 84.763 51.6429 88.7177 50.0048C92.6724 48.3667 97.024 47.9381 101.222 48.7732C104.87 49.4989 108.26 51.1503 111.072 53.5565C111.776 54.1593 112.835 54.1649 113.491 53.5093ZM95.3 65.7C94.91 66.09 94.91 66.71 95.3 67.1L97.2 69H88C87.45 69 87 69.45 87 70C87 70.55 87.45 71 88 71H97.2L95.3 72.9C94.91 73.29 94.91 73.91 95.3 74.3C95.69 74.69 96.31 74.69 96.7 74.3L100.29 70.71C100.68 70.32 100.68 69.69 100.29 69.3L96.7 65.7C96.31 65.31 95.69 65.31 95.3 65.7ZM105 77H98C97.45 77 97 77.45 97 78C97 78.55 97.45 79 98 79H105C106.1 79 107 78.1 107 77V63C107 61.9 106.1 61 105 61H98C97.45 61 97 61.45 97 62C97 62.55 97.45 63 98 63H105V77ZM129.248 66.3839C127.712 66.3839 126.352 66.1039 125.168 65.5439C123.984 64.9679 123.056 64.1759 122.384 63.1679C121.728 62.1599 121.4 61.0079 121.4 59.7119V48.5039C121.4 48.1359 121.52 47.8399 121.76 47.6159C122 47.3759 122.296 47.2559 122.648 47.2559C123.016 47.2559 123.312 47.3759 123.536 47.6159C123.776 47.8399 123.896 48.1359 123.896 48.5039V59.7119C123.896 60.5759 124.12 61.3439 124.568 62.0159C125.032 62.6719 125.664 63.1919 126.464 63.5759C127.28 63.9439 128.208 64.1279 129.248 64.1279C130.256 64.1279 131.144 63.9439 131.912 63.5759C132.696 63.1919 133.304 62.6719 133.736 62.0159C134.184 61.3439 134.408 60.5759 134.408 59.7119V48.5039C134.408 48.1359 134.528 47.8399 134.768 47.6159C135.008 47.3759 135.304 47.2559 135.656 47.2559C136.024 47.2559 136.32 47.3759 136.544 47.6159C136.768 47.8399 136.88 48.1359 136.88 48.5039V59.7119C136.88 61.0079 136.552 62.1599 135.896 63.1679C135.256 64.1759 134.36 64.9679 133.208 65.5439C132.056 66.1039 130.736 66.3839 129.248 66.3839ZM146.209 66.0959C145.089 66.0959 144.049 65.9279 143.089 65.5919C142.145 65.2399 141.409 64.7999 140.881 64.2719C140.641 64.0159 140.537 63.7279 140.569 63.4079C140.617 63.0719 140.777 62.7999 141.049 62.5919C141.369 62.3359 141.681 62.2319 141.985 62.2799C142.305 62.3119 142.577 62.4479 142.801 62.6879C143.073 62.9919 143.505 63.2799 144.097 63.5519C144.705 63.8079 145.377 63.9359 146.113 63.9359C147.041 63.9359 147.745 63.7839 148.225 63.4799C148.721 63.1759 148.977 62.7839 148.993 62.3039C149.009 61.8239 148.777 61.4079 148.297 61.0559C147.833 60.7039 146.977 60.4159 145.729 60.1919C144.113 59.8719 142.937 59.3919 142.201 58.7519C141.481 58.1119 141.121 57.3279 141.121 56.3999C141.121 55.5839 141.361 54.9119 141.841 54.3839C142.321 53.8399 142.937 53.4399 143.689 53.1839C144.441 52.9119 145.225 52.7759 146.041 52.7759C147.097 52.7759 148.033 52.9439 148.849 53.2799C149.665 53.6159 150.313 54.0799 150.793 54.6719C151.017 54.9279 151.121 55.1999 151.105 55.4879C151.089 55.7599 150.953 55.9919 150.697 56.1839C150.441 56.3599 150.137 56.4159 149.785 56.3519C149.433 56.2879 149.137 56.1439 148.897 55.9199C148.497 55.5359 148.065 55.2719 147.601 55.1279C147.137 54.9839 146.601 54.9119 145.993 54.9119C145.289 54.9119 144.689 55.0319 144.193 55.2719C143.713 55.5119 143.473 55.8639 143.473 56.3279C143.473 56.6159 143.545 56.8799 143.689 57.1199C143.849 57.3439 144.153 57.5519 144.601 57.7439C145.049 57.9199 145.705 58.0959 146.569 58.2719C147.769 58.5119 148.713 58.8159 149.401 59.1839C150.105 59.5519 150.609 59.9839 150.913 60.4799C151.217 60.9599 151.369 61.5199 151.369 62.1599C151.369 62.8959 151.169 63.5599 150.769 64.1519C150.385 64.7439 149.809 65.2159 149.041 65.5679C148.289 65.9199 147.345 66.0959 146.209 66.0959ZM157.081 65.2559C158.121 65.8159 159.305 66.0959 160.633 66.0959C161.369 66.0959 162.137 65.9599 162.937 65.6879C163.753 65.4159 164.433 65.0639 164.977 64.6319C165.249 64.4239 165.377 64.1759 165.361 63.8879C165.345 63.5999 165.201 63.3359 164.929 63.0959C164.721 62.9199 164.473 62.8399 164.185 62.8559C163.913 62.8559 163.657 62.9439 163.417 63.1199C163.097 63.3599 162.673 63.5759 162.145 63.7679C161.633 63.9439 161.129 64.0319 160.633 64.0319C159.721 64.0319 158.913 63.8319 158.209 63.4319C157.505 63.0319 156.953 62.4879 156.553 61.7999C156.285 61.3389 156.106 60.8349 156.018 60.2879H165.145C165.465 60.2879 165.729 60.1919 165.937 59.9999C166.145 59.7919 166.249 59.5359 166.249 59.2319C166.249 57.9679 166.009 56.8559 165.529 55.8959C165.065 54.9199 164.385 54.1599 163.489 53.6159C162.593 53.0559 161.521 52.7759 160.273 52.7759C159.009 52.7759 157.889 53.0639 156.913 53.6399C155.937 54.1999 155.169 54.9839 154.609 55.9919C154.065 56.9839 153.793 58.1359 153.793 59.4479C153.793 60.7439 154.081 61.8959 154.657 62.9039C155.249 63.8959 156.057 64.6799 157.081 65.2559ZM156.045 58.3679C156.128 57.9126 156.265 57.4886 156.457 57.0959C156.793 56.3919 157.281 55.8399 157.921 55.4399C158.577 55.0399 159.361 54.8399 160.273 54.8399C161.073 54.8399 161.753 55.0239 162.313 55.3919C162.873 55.7599 163.305 56.2639 163.609 56.9039C163.825 57.3474 163.968 57.8354 164.039 58.3679H156.045ZM171.771 64.7999V57.7919C171.771 57.0559 172.003 56.4479 172.467 55.9679C172.947 55.4879 173.595 55.1599 174.411 54.9839C175.227 54.8079 176.147 54.8239 177.171 55.0319C177.379 55.0799 177.571 55.0879 177.747 55.0559C177.923 55.0239 178.075 54.9519 178.203 54.8399C178.347 54.7119 178.443 54.5359 178.491 54.3119C178.603 53.8799 178.419 53.5119 177.939 53.2079C177.475 52.8879 176.763 52.7279 175.803 52.7279C174.843 52.7279 173.963 52.9519 173.163 53.3999C172.627 53.6999 172.163 54.0717 171.771 54.5152V54.0719C171.771 53.6719 171.667 53.3759 171.459 53.1839C171.267 52.9759 170.971 52.8719 170.571 52.8719C170.187 52.8719 169.891 52.9759 169.683 53.1839C169.475 53.3919 169.371 53.6879 169.371 54.0719V64.7999C169.371 65.1999 169.475 65.5039 169.683 65.7119C169.891 65.9039 170.187 65.9999 170.571 65.9999C170.971 65.9999 171.267 65.8959 171.459 65.6879C171.667 65.4799 171.771 65.1839 171.771 64.7999ZM121.736 92.6399C121.976 92.8799 122.272 92.9999 122.624 92.9999H132.56C132.912 92.9999 133.208 92.8799 133.448 92.6399C133.688 92.3999 133.808 92.1039 133.808 91.7519C133.808 91.3999 133.688 91.1039 133.448 90.8639C133.208 90.6239 132.912 90.5039 132.56 90.5039H123.872V75.5039C123.872 75.1519 123.752 74.8559 123.512 74.6159C123.272 74.3759 122.976 74.2559 122.624 74.2559C122.288 74.2559 122 74.3759 121.76 74.6159C121.52 74.8559 121.4 75.1519 121.4 75.5039V91.7519C121.4 92.1039 121.512 92.3999 121.736 92.6399ZM142.51 93.0959C141.214 93.0959 140.07 92.8159 139.078 92.2559C138.086 91.6799 137.302 90.8959 136.726 89.9039C136.166 88.8959 135.886 87.7439 135.886 86.4479C135.886 85.1359 136.166 83.9839 136.726 82.9919C137.302 81.9839 138.086 81.1999 139.078 80.6399C140.07 80.0639 141.214 79.7759 142.51 79.7759C143.79 79.7759 144.926 80.0639 145.918 80.6399C146.91 81.1999 147.686 81.9839 148.246 82.9919C148.822 83.9839 149.11 85.1359 149.11 86.4479C149.11 87.7439 148.83 88.8959 148.27 89.9039C147.71 90.8959 146.934 91.6799 145.942 92.2559C144.95 92.8159 143.806 93.0959 142.51 93.0959ZM142.51 90.9359C143.342 90.9359 144.078 90.7439 144.718 90.3599C145.358 89.9759 145.854 89.4479 146.206 88.7759C146.574 88.1039 146.758 87.3279 146.758 86.4479C146.758 85.5679 146.574 84.7919 146.206 84.1199C145.854 83.4319 145.358 82.8959 144.718 82.5119C144.078 82.1279 143.342 81.9359 142.51 81.9359C141.678 81.9359 140.942 82.1279 140.302 82.5119C139.662 82.8959 139.158 83.4319 138.79 84.1199C138.422 84.7919 138.238 85.5679 138.238 86.4479C138.238 87.3279 138.422 88.1039 138.79 88.7759C139.158 89.4479 139.662 89.9759 140.302 90.3599C140.942 90.7439 141.678 90.9359 142.51 90.9359ZM155.034 92.2559C155.962 92.8159 157.026 93.0959 158.226 93.0959C159.33 93.0959 160.306 92.8159 161.154 92.2559C161.894 91.7531 162.494 91.0918 162.954 90.2721V91.4639C162.954 92.5039 162.762 93.3839 162.378 94.1039C161.994 94.8239 161.474 95.3679 160.818 95.7359C160.178 96.1039 159.474 96.2879 158.706 96.2879C157.874 96.2879 157.13 96.1359 156.474 95.8319C155.818 95.5279 155.274 95.1039 154.842 94.5599C154.65 94.3039 154.394 94.1439 154.074 94.0799C153.77 94.0159 153.474 94.0799 153.186 94.2719C152.93 94.4479 152.77 94.6799 152.706 94.9679C152.658 95.2559 152.738 95.5359 152.946 95.8079C153.634 96.6719 154.474 97.3279 155.466 97.7759C156.458 98.2239 157.522 98.4479 158.658 98.4479C159.97 98.4479 161.122 98.1439 162.114 97.5359C163.122 96.9279 163.906 96.1039 164.466 95.0639C165.026 94.0399 165.306 92.8959 165.306 91.6319V86.4479C165.306 85.1359 165.018 83.9839 164.442 82.9919C163.882 81.9839 163.106 81.1999 162.114 80.6399C161.122 80.0639 159.986 79.7759 158.706 79.7759C157.41 79.7759 156.266 80.0639 155.274 80.6399C154.282 81.1999 153.498 81.9839 152.922 82.9919C152.362 83.9839 152.082 85.1359 152.082 86.4479C152.082 87.7439 152.346 88.8959 152.874 89.9039C153.402 90.8959 154.122 91.6799 155.034 92.2559ZM160.914 90.3599C160.274 90.7439 159.538 90.9359 158.706 90.9359C157.874 90.9359 157.138 90.7439 156.498 90.3599C155.858 89.9759 155.354 89.4479 154.986 88.7759C154.618 88.1039 154.434 87.3279 154.434 86.4479C154.434 85.5679 154.618 84.7919 154.986 84.1199C155.354 83.4319 155.858 82.8959 156.498 82.5119C157.138 82.1279 157.874 81.9359 158.706 81.9359C159.538 81.9359 160.274 82.1279 160.914 82.5119C161.554 82.8959 162.05 83.4319 162.402 84.1199C162.77 84.7919 162.954 85.5679 162.954 86.4479C162.954 87.3279 162.77 88.1039 162.402 88.7759C162.05 89.4479 161.554 89.9759 160.914 90.3599ZM170.413 92.9999C170.061 92.9999 169.765 92.8879 169.525 92.6639C169.301 92.4239 169.189 92.1279 169.189 91.7759V81.0959C169.189 80.7279 169.301 80.4319 169.525 80.2079C169.765 79.9839 170.061 79.8719 170.413 79.8719C170.781 79.8719 171.077 79.9839 171.301 80.2079C171.525 80.4319 171.637 80.7279 171.637 81.0959V91.7759C171.637 92.1279 171.525 92.4239 171.301 92.6639C171.077 92.8879 170.781 92.9999 170.413 92.9999ZM170.413 77.7359C169.981 77.7359 169.605 77.5839 169.285 77.2799C168.981 76.9599 168.829 76.5839 168.829 76.1519C168.829 75.7199 168.981 75.3519 169.285 75.0479C169.605 74.7279 169.981 74.5679 170.413 74.5679C170.845 74.5679 171.213 74.7279 171.517 75.0479C171.837 75.3519 171.997 75.7199 171.997 76.1519C171.997 76.5839 171.837 76.9599 171.517 77.2799C171.213 77.5839 170.845 77.7359 170.413 77.7359ZM186.391 92.6879C186.631 92.9119 186.927 93.0239 187.279 93.0239C187.631 93.0239 187.919 92.9119 188.143 92.6879C188.383 92.4479 188.503 92.1519 188.503 91.7999V85.8959C188.503 84.5679 188.247 83.4479 187.735 82.5359C187.239 81.6239 186.551 80.9359 185.671 80.4719C184.807 79.9919 183.823 79.7519 182.719 79.7519C181.663 79.7519 180.711 79.9839 179.863 80.4479C179.403 80.6994 178.995 81.0003 178.639 81.3506V81.0959C178.639 80.7279 178.527 80.4319 178.303 80.2079C178.079 79.9839 177.783 79.8719 177.415 79.8719C177.063 79.8719 176.767 79.9839 176.527 80.2079C176.303 80.4319 176.191 80.7279 176.191 81.0959V91.7999C176.191 92.1519 176.303 92.4479 176.527 92.6879C176.767 92.9119 177.063 93.0239 177.415 93.0239C177.783 93.0239 178.079 92.9119 178.303 92.6879C178.527 92.4479 178.639 92.1519 178.639 91.7999V85.0319C178.639 84.4399 178.799 83.9199 179.119 83.4719C179.439 83.0079 179.871 82.6399 180.415 82.3679C180.959 82.0959 181.567 81.9599 182.239 81.9599C182.975 81.9599 183.623 82.1039 184.183 82.3919C184.759 82.6639 185.215 83.0879 185.551 83.6639C185.887 84.2399 186.055 84.9839 186.055 85.8959V91.7999C186.055 92.1519 186.167 92.4479 186.391 92.6879Z" fill="white"/>
</svg>
